<svg xmlns="http://www.w3.org/2000/svg" width="24" height="24" viewBox="0 0 24 24" fill="currentColor" stroke="none" stroke-width="1" stroke-linecap="round" stroke-linejoin="round"><path transform="rotate(0 12 12)" d="M12.9 1.8 L9.5 6.6 L11.5 6.6 L10 10.4 L14.2 5.1 L12.2 5.1 Z"></path><path transform="rotate(60 12 12)" d="M12.9 1.8 L9.5 6.6 L11.5 6.6 L10 10.4 L14.2 5.1 L12.2 5.1 Z"></path><path transform="rotate(120 12 12)" d="M12.9 1.8 L9.5 6.6 L11.5 6.6 L10 10.4 L14.2 5.1 L12.2 5.1 Z"></path><path transform="rotate(180 12 12)" d="M12.9 1.8 L9.5 6.6 L11.5 6.6 L10 10.4 L14.2 5.1 L12.2 5.1 Z"></path><path transform="rotate(240 12 12)" d="M12.9 1.8 L9.5 6.6 L11.5 6.6 L10 10.4 L14.2 5.1 L12.2 5.1 Z"></path><path transform="rotate(300 12 12)" d="M12.9 1.8 L9.5 6.6 L11.5 6.6 L10 10.4 L14.2 5.1 L12.2 5.1 Z"></path><circle cx="12" cy="12" r="2.4"></circle></svg>