<svg xmlns="http://www.w3.org/2000/svg" width="24" height="24" viewBox="0 0 24 24" fill="none" stroke="currentColor" stroke-width="1.6" stroke-linecap="round" stroke-linejoin="round"><g transform="rotate(0 12 12)"><path d="M12 12V3"></path><path d="M12 5 L9.6 2.6"></path><path d="M12 5 L14.4 2.6"></path><path d="M12 8 L10.2 6.2"></path><path d="M12 8 L13.8 6.2"></path></g><g transform="rotate(60 12 12)"><path d="M12 12V3"></path><path d="M12 5 L9.6 2.6"></path><path d="M12 5 L14.4 2.6"></path><path d="M12 8 L10.2 6.2"></path><path d="M12 8 L13.8 6.2"></path></g><g transform="rotate(120 12 12)"><path d="M12 12V3"></path><path d="M12 5 L9.6 2.6"></path><path d="M12 5 L14.4 2.6"></path><path d="M12 8 L10.2 6.2"></path><path d="M12 8 L13.8 6.2"></path></g><g transform="rotate(180 12 12)"><path d="M12 12V3"></path><path d="M12 5 L9.6 2.6"></path><path d="M12 5 L14.4 2.6"></path><path d="M12 8 L10.2 6.2"></path><path d="M12 8 L13.8 6.2"></path></g><g transform="rotate(240 12 12)"><path d="M12 12V3"></path><path d="M12 5 L9.6 2.6"></path><path d="M12 5 L14.4 2.6"></path><path d="M12 8 L10.2 6.2"></path><path d="M12 8 L13.8 6.2"></path></g><g transform="rotate(300 12 12)"><path d="M12 12V3"></path><path d="M12 5 L9.6 2.6"></path><path d="M12 5 L14.4 2.6"></path><path d="M12 8 L10.2 6.2"></path><path d="M12 8 L13.8 6.2"></path></g></svg>